HIERARCHY
ROOT joint_0
{
	OFFSET 0.000000 0.000000 0.000000
	CHANNELS 6 Xposition Yposition Zposition Zrotation Yrotation Xrotation 
	JOINT joint_1
	{
		OFFSET 0.511002 1.944000 108.288940
		CHANNELS 3 Zrotation Yrotation Xrotation
		JOINT joint_2
		{
			OFFSET -9.074005 1.512993 98.440063
			CHANNELS 3 Zrotation Yrotation Xrotation
			JOINT joint_3
			{
				OFFSET -8.590996 1.815002 98.366943
				CHANNELS 3 Zrotation Yrotation Xrotation
				JOINT joint_4
				{
					OFFSET 2.489998 3.531998 136.462036
					CHANNELS 3 Zrotation Yrotation Xrotation
					JOINT joint_5
					{
						OFFSET 22.708000 2.955002 80.357056
						CHANNELS 3 Zrotation Yrotation Xrotation
						End Site
						{
							OFFSET 0.000000 0.000000 0.000000
						}
					}
				}
				JOINT joint_6
				{
					OFFSET 2.860001 -27.684998 77.234009
					CHANNELS 3 Zrotation Yrotation Xrotation
					JOINT joint_7
					{
						OFFSET 5.449997 -131.244003 -18.851929
						CHANNELS 3 Zrotation Yrotation Xrotation
						JOINT joint_8
						{
							OFFSET 35.757000 -24.661995 -264.074097
							CHANNELS 3 Zrotation Yrotation Xrotation
							JOINT joint_9
							{
								OFFSET 49.392001 -1.747002 -239.960938
								CHANNELS 3 Zrotation Yrotation Xrotation
								End Site
								{
									OFFSET 0.000000 0.000000 0.000000
								}
							}
						}
					}
				}
				JOINT joint_10
				{
					OFFSET -0.127998 31.625000 75.753052
					CHANNELS 3 Zrotation Yrotation Xrotation
					JOINT joint_11
					{
						OFFSET -5.618004 131.132996 -19.557007
						CHANNELS 3 Zrotation Yrotation Xrotation
						JOINT joint_12
						{
							OFFSET 46.488998 30.127991 -261.826050
							CHANNELS 3 Zrotation Yrotation Xrotation
							JOINT joint_13
							{
								OFFSET 66.021003 0.474030 -235.934937
								CHANNELS 3 Zrotation Yrotation Xrotation
								End Site
								{
									OFFSET 0.000000 0.000000 0.000000
								}
							}
						}
					}
				}
			}
		}
	}
	JOINT joint_14
	{
		OFFSET 15.887001 -78.871004 -94.561035
		CHANNELS 3 Zrotation Yrotation Xrotation
		JOINT joint_15
		{
			OFFSET -4.133003 6.714001 -473.615967
			CHANNELS 3 Zrotation Yrotation Xrotation
			JOINT joint_16
			{
				OFFSET -19.541000 5.340000 -399.613007
				CHANNELS 3 Zrotation Yrotation Xrotation
				JOINT joint_17
				{
					OFFSET 164.317001 41.657999 -73.195000
					CHANNELS 3 Zrotation Yrotation Xrotation
					End Site
					{
						OFFSET 0.000000 0.000000 0.000000
					}
				}
			}
		}
	}
	JOINT joint_18
	{
		OFFSET 6.513000 77.960991 -96.406982
		CHANNELS 3 Zrotation Yrotation Xrotation
		JOINT joint_19
		{
			OFFSET -10.660004 -8.518997 -473.485016
			CHANNELS 3 Zrotation Yrotation Xrotation
			JOINT joint_20
			{
				OFFSET -36.967995 -11.098999 -398.260010
				CHANNELS 3 Zrotation Yrotation Xrotation
				JOINT joint_21
				{
					OFFSET 166.067997 30.363998 -74.785000
					CHANNELS 3 Zrotation Yrotation Xrotation
					End Site
					{
						OFFSET 0.000000 0.000000 0.000000
					}
				}
			}
		}
	}
}
MOTION
Frames: 6
Frame Time: 0.016667
-81.280998 100.125000 1060.050049 -5.095834 2.377559 0.273590 1.255648 3.535036 1.684538 1.187111 -4.405311 -0.448853 1.098128 3.359224 -0.001372 -0.118997 1.915202 0.197307 0.000000 0.000000 0.000000 2.017136 1.146371 -1.141414 -0.350538 1.478299 -1.102487 0.379842 -2.280910 1.772330 0.000000 0.000000 0.000000 -4.128129 2.004160 -1.016037 0.670886 2.776454 0.221029 0.807276 -0.127203 2.812242 0.000000 0.000000 0.000000 -2.778547 -1.434412 -2.751197 -2.871648 -1.405620 -0.070707 -2.816391 0.238564 -1.297223 0.000000 0.000000 0.000000 -0.585737 -3.668053 3.036673 -0.578521 0.643688 -0.731421 -0.613948 0.941817 -0.447782 0.000000 0.000000 0.000000 
-80.816002 100.150002 1060.050049 -5.038873 2.566476 0.263148 1.249705 3.623122 1.724229 1.178640 -4.480799 -0.457569 1.089386 3.345203 -0.012279 -0.122222 1.934342 0.205470 0.000000 0.000000 0.000000 2.023423 1.178204 -1.075158 -0.357262 1.503597 -1.223679 0.393031 -2.249103 1.822985 0.000000 0.000000 0.000000 -4.149167 2.032795 -1.091164 0.685941 2.818288 0.344882 0.779389 -0.181005 2.723240 0.000000 0.000000 0.000000 -2.795549 -1.607327 -2.759948 -2.894683 -1.400803 -0.029840 -2.838759 0.205149 -1.299184 0.000000 0.000000 0.000000 -0.593350 -3.840510 3.057009 -0.580281 0.607822 -0.732243 -0.617785 0.999596 -0.459966 0.000000 0.000000 0.000000 
-80.184998 100.220001 1060.024048 -4.958919 2.802370 0.252587 1.237782 3.734594 1.776156 1.164049 -4.566387 -0.470554 1.075414 3.319506 -0.024750 -0.124579 1.953484 0.210892 0.000000 0.000000 0.000000 2.047471 1.213826 -1.002453 -0.363175 1.533382 -1.369119 0.409402 -2.193883 1.884284 0.000000 0.000000 0.000000 -4.188515 2.077767 -1.175864 0.704574 2.881091 0.488302 0.743559 -0.252694 2.609320 0.000000 0.000000 0.000000 -2.818164 -1.817920 -2.781504 -2.924458 -1.390828 0.028573 -2.868415 0.125082 -1.293067 0.000000 0.000000 0.000000 -0.605618 -4.063362 3.075050 -0.585218 0.584491 -0.725569 -0.623428 1.056989 -0.472904 0.000000 0.000000 0.000000 
-78.987000 100.333000 1059.984009 -4.846089 3.147824 0.246030 1.228751 3.875521 1.816562 1.153266 -4.700308 -0.482168 1.062367 3.294534 -0.036164 -0.119580 1.961814 0.194298 0.000000 0.000000 0.000000 2.119031 1.271256 -0.924919 -0.371580 1.591422 -1.510147 0.419716 -2.110195 1.917774 0.000000 0.000000 0.000000 -4.285924 2.154097 -1.271187 0.730423 2.987371 0.656635 0.701069 -0.338237 2.474305 0.000000 0.000000 0.000000 -2.841821 -2.111960 -2.821997 -2.957529 -1.358036 0.101017 -2.904070 -0.079797 -1.259248 0.000000 0.000000 0.000000 -0.637603 -4.458591 3.077993 -0.606681 0.756233 -0.714533 -0.634687 0.925064 -0.454206 0.000000 0.000000 0.000000 
-77.391998 100.476997 1059.952026 -4.687818 3.623498 0.253568 1.221957 4.046766 1.828574 1.146555 -4.882469 -0.479173 1.049336 3.264839 -0.055897 -0.104839 1.979477 0.145868 0.000000 0.000000 0.000000 2.216914 1.341366 -0.832088 -0.380568 1.666534 -1.621388 0.414574 -1.978762 1.882394 0.000000 0.000000 0.000000 -4.445052 2.249228 -1.396861 0.763095 3.127193 0.879009 0.648069 -0.420757 2.302045 0.000000 0.000000 0.000000 -2.865544 -2.519213 -2.895153 -2.993680 -1.305628 0.196682 -2.945275 -0.410370 -1.197315 0.000000 0.000000 0.000000 -0.699437 -5.120341 3.051234 -0.653133 1.257479 -0.693750 -0.652966 0.519840 -0.389349 0.000000 0.000000 0.000000 
-75.230003 100.664001 1059.906982 -4.494721 4.215498 0.266799 1.217085 4.230905 1.828140 1.144446 -5.096983 -0.464310 1.035867 3.232952 -0.085966 -0.084231 1.962098 0.082625 0.000000 0.000000 0.000000 2.358438 1.431111 -0.735900 -0.390874 1.767726 -1.721077 0.403370 -1.816811 1.818540 0.000000 0.000000 0.000000 -4.662514 2.373797 -1.533280 0.803457 3.309187 1.129004 0.588746 -0.516898 2.109761 0.000000 0.000000 0.000000 -2.890958 -3.017412 -2.987352 -3.033980 -1.230243 0.306415 -2.993262 -0.861687 -1.109033 0.000000 0.000000 0.000000 -0.781586 -5.962643 3.008804 -0.716296 1.953670 -0.667067 -0.677112 -0.059275 -0.295758 0.000000 0.000000 0.000000 
